HIERARCHY
ROOT Hips
{
	OFFSET 0.00 0.00 0.00
	CHANNELS 6 Xposition Yposition Zposition Xrotation Yrotation Zrotation
	JOINT Spine
	{
		OFFSET 0.00000 1.92919 2.89379
		CHANNELS 3 Xrotation Yrotation Zrotation
		JOINT Spine1
		{
			OFFSET 0.00000 0.67000 3.79977
			CHANNELS 3 Xrotation Yrotation Zrotation
			JOINT Spine2
			{
				OFFSET 0.00000 0.33628 3.84370
				CHANNELS 3 Xrotation Yrotation Zrotation
				JOINT Spine3
				{
					OFFSET 0.00000 0.00000 3.85838
					CHANNELS 3 Xrotation Yrotation Zrotation
					JOINT Neck
					{
						OFFSET 0.00000 -1.44689 10.12826
						CHANNELS 3 Xrotation Yrotation Zrotation
						JOINT Head
						{
							OFFSET 0.00000 -0.92125 5.22468
							CHANNELS 3 Xrotation Yrotation Zrotation
							End Site
							{
								OFFSET 0.00000 0.00000 6.24576
							}
						}
					}
					JOINT RightShoulder
					{
						OFFSET -1.19724 -1.99540 6.46510
						CHANNELS 3 Xrotation Yrotation Zrotation
						JOINT RightArm
						{
							OFFSET -5.94629 -0.00000 0.00000
							CHANNELS 3 Xrotation Yrotation Zrotation
							JOINT RightForeArm
							{
								OFFSET -11.02134 -0.00000 0.00000
								CHANNELS 3 Xrotation Yrotation Zrotation
								JOINT RightHand
								{
									OFFSET -10.43440 -0.00000 0.00000
									CHANNELS 3 Xrotation Yrotation Zrotation
									JOINT RightHandEnd
									{
										OFFSET -2.82937 -0.00000 0.00000
										CHANNELS 3 Xrotation Yrotation Zrotation
										End Site
										{
											OFFSET -2.82937 -0.00000 0.00000
										}
									}
									JOINT RightHandThumb1
									{
										OFFSET -1.13175 -1.88625 -0.75450
										CHANNELS 3 Xrotation Yrotation Zrotation
										End Site
										{
											OFFSET -2.73296 -0.73229 0.00000
										}
									}
								}
							}
						}
					}
					JOINT LeftShoulder
					{
						OFFSET 1.19724 -1.99540 6.46510
						CHANNELS 3 Xrotation Yrotation Zrotation
						JOINT LeftArm
						{
							OFFSET 5.94629 0.00000 0.00000
							CHANNELS 3 Xrotation Yrotation Zrotation
							JOINT LeftForeArm
							{
								OFFSET 11.02134 0.00000 0.00000
								CHANNELS 3 Xrotation Yrotation Zrotation
								JOINT LeftHand
								{
									OFFSET 10.43440 0.00000 0.00000
									CHANNELS 3 Xrotation Yrotation Zrotation
									JOINT LeftHandEnd
									{
										OFFSET 2.82937 0.00000 0.00000
										CHANNELS 3 Xrotation Yrotation Zrotation
										End Site
										{
											OFFSET 2.82937 0.00000 0.00000
										}
									}
									JOINT LeftHandThumb1
									{
										OFFSET 1.13175 -1.88625 -0.75450
										CHANNELS 3 Xrotation Yrotation Zrotation
										End Site
										{
											OFFSET 2.73296 -0.73229 0.00000
										}
									}
								}
							}
						}
					}
				}
			}
		}
	}
	JOINT RightUpLeg
	{
		OFFSET -3.55181 0.00000 -1.03761
		CHANNELS 3 Xrotation Yrotation Zrotation
		JOINT RightLeg
		{
			OFFSET 0.00000 0.00000 -15.86106
			CHANNELS 3 Xrotation Yrotation Zrotation
			JOINT RightFoot
			{
				OFFSET 0.00000 0.00000 -16.30493
				CHANNELS 3 Xrotation Yrotation Zrotation
				JOINT RightToeBase
				{
					OFFSET 0.00000 -5.76215 -2.09725
					CHANNELS 3 Xrotation Yrotation Zrotation
					End Site
					{
						OFFSET 0.00000 -2.87338 0.00000
					}
				}
			}
		}
	}
	JOINT LeftUpLeg
	{
		OFFSET 3.55181 0.00000 -1.03761
		CHANNELS 3 Xrotation Yrotation Zrotation
		JOINT LeftLeg
		{
			OFFSET 0.00000 0.00000 -15.86106
			CHANNELS 3 Xrotation Yrotation Zrotation
			JOINT LeftFoot
			{
				OFFSET 0.00000 0.00000 -16.30493
				CHANNELS 3 Xrotation Yrotation Zrotation
				JOINT LeftToeBase
				{
					OFFSET 0.00000 -5.76215 -2.09725
					CHANNELS 3 Xrotation Yrotation Zrotation
					End Site
					{
						OFFSET 0.00000 -2.87338 0.00000
					}
				}
			}
		}
	}
}
MOTION
Frames: 16
Frame Time: 0.008342
 2.8921 -10.6354 35.9249 -2.0996 0.1635 -176.7875 -1.0139 0.0742 0.1870 -1.1344 -0.2472 -0.0841 6.4010 -2.8650 -1.3163 2.6779 -1.1614 1.3656 4.1049 -4.7915 -4.2536 0.0302 0.0873 -1.8400 13.4006 -4.7391 9.2482 29.3605 -48.1313 42.0312 -0.0000 0.0000 71.3485 -21.7247 22.4012 6.7381 -0.0000 -0.0000 -0.0000 -0.0000 -0.0000 -0.0000 12.5344 -1.6066 -8.5633 26.3678 45.3012 -50.5893 -0.0000 -0.0000 -103.6650 -6.7874 -6.9062 2.9495 -0.0000 0.0000 0.0000 -0.0000 -0.0000 -0.0000 -5.9888 1.2425 -41.1091 6.5734 0.0000 0.0000 -4.9258 2.9191 -1.2252 2.5518 0.0000 0.0000 -8.3332 -2.6590 26.0245 9.0831 0.0000 -0.0000 -1.5120 2.5305 -0.1827 -0.5957 0.0000 -0.0000
 2.8225 -10.5819 35.9147 -1.8824 0.0356 -176.7729 -0.9926 0.2700 0.1461 -1.1608 -0.1748 -0.0838 6.4569 -2.9312 -1.3831 2.7085 -1.1924 1.3888 4.2260 -4.9223 -4.3358 0.1139 -0.0421 -1.8640 13.3689 -5.1204 9.2158 29.5714 -47.9390 42.1795 -0.0000 0.0000 71.4647 -21.8005 22.3183 6.7708 -0.0000 0.0000 0.0000 0.0000 0.0000 0.0000 12.3754 -1.4157 -8.6919 26.2670 44.9333 -50.4832 -0.0000 0.0000 -103.4389 -6.5329 -6.9297 2.9838 -0.0000 -0.0000 0.0000 -0.0000 0.0000 0.0000 -5.7095 1.2604 -41.2490 6.6798 0.0000 -0.0000 -4.9949 2.7872 -1.1514 2.6129 0.0000 -0.0000 -7.7175 -2.6349 27.0017 8.4570 -0.0000 0.0000 -1.5023 2.2154 -0.9044 -0.1486 -0.0000 -0.0000
 2.7468 -10.5300 35.9101 -1.6806 -0.0128 -176.7120 -0.9809 0.4872 0.0994 -1.1806 -0.0651 -0.0720 6.5121 -2.9756 -1.4661 2.7344 -1.2079 1.3922 4.3535 -5.0506 -4.4188 0.1965 -0.1890 -1.8952 13.3231 -5.5232 9.1671 29.8026 -47.7528 42.3522 -0.0000 0.0000 71.5280 -21.8288 22.2274 6.7998 -0.0000 -0.0000 0.0000 -0.0000 0.0000 0.0000 12.2341 -1.2306 -8.7963 26.1907 44.5375 -50.4237 0.0000 -0.0000 -103.1999 -6.1924 -6.9377 3.0283 -0.0000 -0.0000 0.0000 -0.0000 0.0000 0.0000 -5.4378 1.3695 -41.3861 6.7824 0.0000 -0.0000 -5.0599 2.6552 -1.1171 2.6828 0.0000 0.0000 -7.1312 -2.5325 27.8402 7.8633 0.0000 -0.0000 -1.4407 2.1443 -1.5773 0.0466 0.0000 0.0000
 2.6656 -10.4780 35.9106 -1.4732 0.0078 -176.6109 -0.9560 0.7206 0.0483 -1.1932 0.0513 -0.0613 6.5577 -2.9712 -1.5505 2.7576 -1.2097 1.3762 4.4895 -5.1731 -4.4995 0.2779 -0.3518 -1.9370 13.2570 -5.9144 9.1016 30.0801 -47.6221 42.5715 -0.0000 0.0000 71.5340 -21.7867 22.1256 6.8181 -0.0000 0.0000 -0.0000 0.0000 0.0000 0.0000 12.1051 -1.0672 -8.8749 26.1538 44.1317 -50.4136 0.0000 -0.0000 -102.9555 -5.7703 -6.9214 3.0824 -0.0000 0.0000 0.0000 -0.0000 0.0000 -0.0000 -5.1478 1.5531 -41.5174 6.8748 -0.0000 -0.0000 -5.1205 2.5219 -1.1211 2.7527 0.0000 -0.0000 -6.5483 -2.3574 28.5301 7.2990 0.0000 -0.0000 -1.3207 2.2775 -2.2066 0.0184 0.0000 0.0000
 2.5795 -10.4269 35.9150 -1.2779 0.0808 -176.4752 -0.9329 0.9520 -0.0054 -1.1999 0.1754 -0.0492 6.5927 -2.9234 -1.6356 2.7762 -1.1941 1.3395 4.6363 -5.2844 -4.5782 0.3551 -0.5283 -1.9850 13.1789 -6.2658 9.0192 30.4112 -47.5775 42.8564 -0.0000 0.0000 71.4800 -21.6614 22.0157 6.8214 -0.0000 0.0000 0.0000 0.0000 0.0000 0.0000 11.9955 -0.9318 -8.9196 26.1560 43.7218 -50.4597 -0.0000 0.0000 -102.7077 -5.2761 -6.8787 3.1414 0.0000 -0.0000 0.0000 0.0000 -0.0000 -0.0000 -4.8630 1.7952 -41.6348 6.9632 -0.0000 0.0000 -5.1772 2.3913 -1.1675 2.8151 -0.0000 0.0000 -5.9951 -2.1216 29.0500 6.7768 0.0000 0.0000 -1.1491 2.5568 -2.7766 -0.1887 -0.0000 0.0000
 2.4890 -10.3770 35.9221 -1.0993 0.1880 -176.3107 -0.9151 1.1669 -0.0609 -1.2025 0.3008 -0.0364 6.6153 -2.8355 -1.7165 2.7903 -1.1624 1.2829 4.7934 -5.3744 -4.6472 0.4280 -0.7145 -2.0468 13.0934 -6.5406 8.9188 30.8073 -47.6574 43.2262 -0.0000 0.0000 71.3682 -21.4427 21.8988 6.8053 -0.0000 0.0000 0.0000 -0.0000 0.0000 -0.0000 11.9122 -0.8288 -8.9269 26.1937 43.3154 -50.5664 0.0000 -0.0000 -102.4611 -4.7170 -6.8100 3.2045 -0.0000 0.0000 -0.0000 -0.0000 0.0000 0.0000 -4.5917 2.0772 -41.7338 7.0516 -0.0000 -0.0000 -5.2294 2.2641 -1.2575 2.8634 -0.0000 0.0000 -5.4829 -1.8414 29.4001 6.3071 0.0000 -0.0000 -0.9425 2.9160 -3.2833 -0.5200 -0.0000 0.0000
 2.3949 -10.3284 35.9306 -0.9406 0.3120 -176.1258 -0.9054 1.3540 -0.1176 -1.1999 0.4202 -0.0239 6.6218 -2.7108 -1.7903 2.8011 -1.1148 1.2102 4.9589 -5.4378 -4.7052 0.4981 -0.9039 -2.1208 13.0083 -6.7125 8.8026 31.2711 -47.8871 43.6899 -0.0000 0.0000 71.2072 -21.1285 21.7772 6.7674 -0.0000 0.0000 -0.0000 -0.0000 0.0000 -0.0000 11.8538 -0.7629 -8.8923 26.2724 42.9239 -50.7391 0.0000 -0.0000 -102.2198 -4.1008 -6.7102 3.2694 -0.0000 0.0000 -0.0000 -0.0000 -0.0000 0.0000 -4.3414 2.3812 -41.8083 7.1447 -0.0000 0.0000 -5.2769 2.1418 -1.3907 2.8945 -0.0000 -0.0000 -5.0206 -1.5340 29.5923 5.8980 0.0000 0.0000 -0.7245 3.2893 -3.7207 -0.9163 0.0000 0.0000
 2.2978 -10.2814 35.9390 -0.8029 0.4368 -175.9277 -0.9055 1.5056 -0.1713 -1.1933 0.5256 -0.0124 6.6132 -2.5562 -1.8544 2.8085 -1.0526 1.1229 5.1303 -5.4665 -4.7502 0.5653 -1.0905 -2.2085 12.9333 -6.7613 8.6724 31.7990 -48.2799 44.2480 -0.0000 -0.0000 71.0118 -20.7274 21.6533 6.7066 -0.0000 0.0000 0.0000 0.0000 0.0000 -0.0000 11.8163 -0.7274 -8.8164 26.3910 42.5507 -50.9725 0.0000 0.0000 -101.9902 -3.4371 -6.5776 3.3345 -0.0000 0.0000 0.0000 0.0000 0.0000 -0.0000 -4.1176 2.6922 -41.8527 7.2477 -0.0000 0.0000 -5.3181 2.0242 -1.5674 2.9081 0.0000 -0.0000 -4.6158 -1.2163 29.6471 5.5595 0.0000 -0.0000 -0.5242 3.6175 -4.0840 -1.3185 0.0000 -0.0000
 2.1980 -10.2363 35.9462 -0.6882 0.5500 -175.7231 -0.9164 1.6172 -0.2211 -1.1863 0.6146 -0.0038 6.5920 -2.3826 -1.9019 2.8137 -0.9782 1.0232 5.3015 -5.4535 -4.7802 0.6327 -1.2680 -2.3133 12.8766 -6.6752 8.5305 32.3826 -48.8385 44.8926 -0.0000 0.0000 70.8006 -20.2562 21.5285 6.6246 -0.0000 0.0000 0.0000 0.0000 0.0000 0.0000 11.7959 -0.7157 -8.7037 26.5459 42.2013 -51.2597 0.0000 0.0000 -101.7792 -2.7341 -6.4127 3.4018 0.0000 0.0000 -0.0000 0.0000 0.0000 -0.0000 -3.9287 2.9999 -41.8588 7.3687 -0.0000 0.0000 -5.3536 1.9122 -1.7903 2.9086 -0.0000 -0.0000 -4.2778 -0.9032 29.5918 5.3013 0.0000 -0.0000 -0.3705 3.8553 -4.3701 -1.6764 -0.0000 -0.0000
 2.0958 -10.1923 35.9513 -0.5818 0.6443 -175.5174 -0.9276 1.6901 -0.2668 -1.1733 0.6788 0.0038 6.5560 -2.1933 -1.9362 2.8173 -0.8955 0.9186 5.4685 -5.3961 -4.7971 0.7020 -1.4302 -2.4334 12.8444 -6.4533 8.3809 33.0124 -49.5550 45.6068 -0.0000 -0.0000 70.5959 -19.7379 21.4047 6.5249 -0.0000 -0.0000 0.0000 0.0000 0.0000 0.0000 11.7975 -0.7185 -8.5508 26.7278 41.8715 -51.6019 -0.0000 -0.0000 -101.5872 -2.0068 -6.2198 3.4666 -0.0000 0.0000 0.0000 -0.0000 -0.0000 -0.0000 -3.7614 3.2964 -41.8202 7.5108 0.0000 0.0000 -5.3838 1.8044 -2.0609 2.9029 0.0000 -0.0000 -3.9929 -0.6061 29.4591 5.1265 0.0000 -0.0000 -0.2873 3.9763 -4.5809 -1.9520 0.0000 -0.0000
 1.9916 -10.1514 35.9535 -0.5050 0.7145 -175.3164 -0.9592 1.7310 -0.3064 -1.1614 0.7131 0.0090 6.5156 -1.9958 -1.9553 2.8198 -0.8086 0.8143 5.6233 -5.2921 -4.8005 0.7728 -1.5725 -2.5715 12.8462 -6.1081 8.2275 33.6634 -50.4000 46.3643 -0.0000 0.0000 70.4180 -19.2041 21.2868 6.4150 0.0000 -0.0000 0.0000 0.0000 0.0000 -0.0000 11.8074 -0.7194 -8.3727 26.9311 41.5646 -51.9742 0.0000 0.0000 -101.4237 -1.2661 -6.0007 3.5316 0.0000 -0.0000 0.0000 -0.0000 -0.0000 0.0000 -3.6496 3.5824 -41.7123 7.6891 -0.0000 0.0000 -5.4120 1.7068 -2.3973 2.9002 0.0000 0.0000 -3.7933 -0.3339 29.2697 5.0478 -0.0000 -0.0000 -0.2929 3.9701 -4.7079 -2.1237 -0.0000 0.0000
 1.8847 -10.1110 35.9527 -0.4150 0.7670 -175.1259 -0.9719 1.7412 -0.3391 -1.1434 0.7301 0.0113 6.4647 -1.8040 -1.9479 2.8211 -0.7175 0.7059 5.7651 -5.1435 -4.7941 0.8477 -1.6911 -2.7251 12.8838 -5.6571 8.0744 34.3227 -51.3474 47.1341 -0.0000 0.0000 70.2920 -18.6829 21.1754 6.2967 -0.0000 0.0000 0.0000 0.0000 0.0000 0.0000 11.8271 -0.7073 -8.1716 27.1481 41.2763 -52.3682 0.0000 0.0000 -101.2911 -0.5318 -5.7623 3.5937 0.0000 -0.0000 0.0000 0.0000 -0.0000 -0.0000 -3.5465 3.8620 -41.5308 7.9058 0.0000 -0.0000 -5.4441 1.6163 -2.7966 2.9104 0.0000 -0.0000 -3.6224 -0.0835 29.0554 5.0482 0.0000 0.0000 -0.3895 3.8511 -4.7601 -2.1881 -0.0000 -0.0000
 1.7753 -10.0721 35.9488 -0.3204 0.8053 -174.9497 -0.9738 1.7304 -0.3649 -1.1232 0.7277 0.0116 6.4115 -1.6190 -1.9183 2.8224 -0.6266 0.6022 5.8867 -4.9554 -4.7818 0.9261 -1.7843 -2.8929 12.9568 -5.1308 7.9220 34.9639 -52.3523 47.8791 -0.0000 0.0000 70.2346 -18.2087 21.0736 6.1775 -0.0000 0.0000 -0.0000 0.0000 0.0000 -0.0000 11.8467 -0.6724 -7.9590 27.3763 41.0119 -52.7687 -0.0000 0.0000 -101.1916 0.1782 -5.5108 3.6510 0.0000 0.0000 -0.0000 0.0000 0.0000 0.0000 -3.4697 4.1425 -41.2482 8.1749 0.0000 -0.0000 -5.4864 1.5386 -3.2796 2.9416 -0.0000 0.0000 -3.4907 0.1449 28.8264 5.1293 -0.0000 -0.0000 -0.5748 3.6424 -4.7345 -2.1572 0.0000 -0.0000
 1.6629 -10.0346 35.9421 -0.2128 0.8367 -174.7923 -0.9581 1.7066 -0.3845 -1.0988 0.7088 0.0108 6.3580 -1.4418 -1.8676 2.8230 -0.5390 0.5076 5.9871 -4.7339 -4.7654 1.0064 -1.8521 -3.0729 13.0696 -4.5604 7.7763 35.5531 -53.3701 48.5577 -0.0000 0.0000 70.2586 -17.8116 20.9881 6.0653 -0.0000 0.0000 0.0000 0.0000 0.0000 0.0000 11.8675 -0.6030 -7.7441 27.6031 40.7697 -53.1568 0.0000 0.0000 -101.1266 0.8428 -5.2574 3.7020 -0.0000 0.0000 -0.0000 0.0000 0.0000 -0.0000 -3.4161 4.4318 -40.8398 8.5066 -0.0000 -0.0000 -5.5456 1.4764 -3.8629 2.9972 0.0000 -0.0000 -3.3838 0.3554 28.5914 5.2817 0.0000 0.0000 -0.8359 3.3777 -4.6351 -2.0564 -0.0000 0.0000
 1.5474 -9.9991 35.9331 -0.0949 0.8691 -174.6578 -0.9279 1.6778 -0.3996 -1.0702 0.6792 0.0091 6.3090 -1.2750 -1.7926 2.8235 -0.4555 0.4230 6.0621 -4.4889 -4.7489 1.0876 -1.8955 -3.2605 13.2085 -3.9853 7.6368 36.0664 -54.3535 49.1282 -0.0000 0.0000 70.3701 -17.5130 20.9175 5.9632 0.0000 0.0000 0.0000 0.0000 0.0000 0.0000 11.8798 -0.4942 -7.5309 27.8327 40.5558 -53.5246 0.0000 -0.0000 -101.0926 1.4429 -5.0072 3.7450 -0.0000 -0.0000 -0.0000 -0.0000 0.0000 -0.0000 -3.3974 4.7405 -40.2760 8.9167 0.0000 0.0000 -5.6299 1.4350 -4.5668 3.0759 0.0000 0.0000 -3.2982 0.5550 28.3510 5.4949 -0.0000 -0.0000 -1.1535 3.0939 -4.4654 -1.9186 0.0000 -0.0000
 1.4288 -9.9642 35.9225 0.0570 0.9107 -174.5506 -0.8605 1.6494 -0.4104 -1.0347 0.6428 0.0084 6.2620 -1.1155 -1.6999 2.8237 -0.3789 0.3524 6.1157 -4.2289 -4.7312 1.1674 -1.9172 -3.4528 13.3743 -3.4329 7.5087 36.4737 -55.2646 49.5581 0.0000 0.0000 70.5662 -17.3314 20.8653 5.8805 -0.0000 0.0000 0.0000 -0.0000 -0.0000 -0.0000 11.8912 -0.3448 -7.3235 28.0567 40.3745 -53.8613 -0.0000 -0.0000 -101.0877 1.9563 -4.7748 3.7815 -0.0000 -0.0000 0.0000 -0.0000 0.0000 -0.0000 -3.3909 5.0725 -39.5381 9.4108 0.0000 0.0000 -5.7430 1.4134 -5.4013 3.1683 -0.0000 0.0000 -3.1947 0.7509 28.1110 5.7469 0.0000 -0.0000 -1.5031 2.8269 -4.2415 -1.7791 -0.0000 0.0000
